<?xml version="1.0" encoding="utf-8"?>
<!-- Generator: Adobe Illustrator 25.1.0, SVG Export Plug-In . SVG Version: 6.00 Build 0)  -->
<svg version="1.1" id="Capa_1" xmlns="http://www.w3.org/2000/svg" xmlns:xlink="http://www.w3.org/1999/xlink" x="0px" y="0px"
	 viewBox="0 0 512 512" style="enable-background:new 0 0 512 512;" xml:space="preserve">
<style type="text/css">
	.st0{fill:#5D8026;}
</style>
<g>
	<g>
		<path class="st0" d="M461.3,122.3c-1.4-1.4-3.3-2.2-5.3-2.2h-80h-12.5V67.5c0,0,0,0,0,0C363.5,30.3,333.2,0,296,0
			c-15,0-28.8,4.9-40,13.2C244.8,4.9,231,0,216,0c-37.2,0-67.5,30.3-67.5,67.5c0,0,0,0,0,0v52.6H56c-2,0-3.9,0.8-5.3,2.2
			c-1.4,1.4-2.2,3.3-2.2,5.3v246.9c0,4.1,3.4,7.5,7.5,7.5s7.5-3.4,7.5-7.5V135.1h85v42.5c0,4.1,3.4,7.5,7.5,7.5s7.5-3.4,7.5-7.5
			v-42.5h105v42.5c0,4.1,3.4,7.5,7.5,7.5c4.1,0,7.5-3.4,7.5-7.5v-42.5h85v109.4v30V497h-305v-92.5c0-4.1-3.4-7.5-7.5-7.5
			s-7.5,3.4-7.5,7.5v100c0,2,0.8,3.9,2.2,5.3c1.4,1.4,3.3,2.2,5.3,2.2h320h80c1.9,0,3.8-0.7,5.3-2.2c1.3-1.3,2-2.9,2.2-4.5
			c0,0,0,0,0,0c0-0.2,0-0.5,0-0.7c0,0,0,0,0,0V127.6C463.5,125.7,462.7,123.7,461.3,122.3z M228.5,120.1h-65V67.5c0,0,0,0,0,0
			c0-28.9,23.6-52.5,52.5-52.5c10.6,0,20.5,3.2,28.8,8.6c-10.1,11.8-16.3,27.1-16.3,43.9c0,0,0,0,0,0.1L228.5,120.1L228.5,120.1z
			 M268.5,67.5v52.6h-25V67.5c0,0,0,0,0,0c0-12.9,4.7-24.8,12.5-33.9C263.8,42.7,268.5,54.6,268.5,67.5
			C268.5,67.5,268.5,67.5,268.5,67.5z M348.5,120.1h-65V67.5c0,0,0,0,0,0c0-16.7-6.1-32.1-16.3-43.9c8.3-5.4,18.2-8.6,28.8-8.6
			c28.9,0,52.5,23.6,52.5,52.5c0,0,0,0,0,0V120.1z M383.5,274.5v-30V135.1h25v326.3l-25,25V274.5z M394.1,497l21.9-21.9l21.9,21.9
			H394.1z M448.5,486.4l-25-25V135.1h25V486.4z"/>
	</g>
</g>
</svg>
