<svg width="14" height="14" viewBox="0 0 14 14" fill="none" xmlns="http://www.w3.org/2000/svg">
<g clip-path="url(#clip0)">
<path d="M7.25 14C3.528 14 0.5 10.972 0.5 7.25C0.5 3.528 3.528 0.5 7.25 0.5C10.972 0.5 14 3.528 14 7.25C14 10.972 10.972 14 7.25 14ZM7.25 1.46426C4.05978 1.46426 1.46426 4.05978 1.46426 7.25C1.46426 10.4402 4.05978 13.0357 7.25 13.0357C10.4402 13.0357 13.0357 10.4402 13.0357 7.25C13.0357 4.05978 10.4402 1.46426 7.25 1.46426Z" fill="#D76464"/>
<path d="M9.66101 10.1431C9.53762 10.1431 9.41423 10.096 9.32009 10.0018L4.49871 5.18041C4.31033 4.99202 4.31033 4.68695 4.49871 4.49867C4.68699 4.31039 4.99217 4.31029 5.18044 4.49867L10.0018 9.32005C10.1902 9.50843 10.1902 9.81351 10.0018 10.0018C9.90769 10.096 9.7844 10.1431 9.66101 10.1431Z" fill="#D76464"/>
<path d="M4.83952 10.1431C4.71613 10.1431 4.59285 10.0961 4.49871 10.0018C4.31033 9.81355 4.31033 9.50837 4.49871 9.32009L9.32009 4.49871C9.50847 4.31033 9.81355 4.31033 10.0018 4.49871C10.1901 4.68699 10.1902 4.99217 10.0018 5.18044L5.18044 10.0018C5.0863 10.0961 4.96291 10.1431 4.83952 10.1431Z" fill="#D76464"/>
</g>
<defs>
<clipPath id="clip0">
<rect width="13.5" height="13.5" fill="white" transform="translate(0.5 0.5)"/>
</clipPath>
</defs>
</svg>
