<?xml version="1.0" encoding="utf-8"?>
<!-- Generator: Adobe Illustrator 25.1.0, SVG Export Plug-In . SVG Version: 6.00 Build 0)  -->
<svg version="1.1" id="Capa_1" xmlns="http://www.w3.org/2000/svg" xmlns:xlink="http://www.w3.org/1999/xlink" x="0px" y="0px"
	 viewBox="0 0 1451.3 1451.3" style="enable-background:new 0 0 1451.3 1451.3;" xml:space="preserve">
<style type="text/css">
	.st0{fill:#5E802C;}
</style>
<g id="outline">
	<path class="st0" d="M930.3,333.6L894,281.9c-28.4-40.2-45.4-87.7-49.3-136.7c13.3,0,24.2-10.9,24.2-24.2V48.4
		c0-26.6-21.8-48.4-48.4-48.4H674.4C647.8,0,626,21.8,626,48.4V121c0,13,10.3,23.6,23.3,24.2c-3.9,49.3-20.9,96.5-49.3,136.7
		l-36.3,51.7c-54.1,76.8-82.9,168.8-82.9,262.8v751.9c0,56.9,46,102.8,102.8,102.8c9.7,0,19.1-1.2,28.1-3.9l59-16.9
		c47.2,26.6,105,26.6,152.1,0l59,16.9c54.4,15.7,111.3-15.7,127-70.2c2.7-9.4,3.9-19.1,3.9-28.7V596.2
		C1013.2,502.4,984.4,410.4,930.3,333.6z M529.5,604.6h435.2v386.9H529.5V604.6z M674.4,48.4h146.1v48.4H674.4L674.4,48.4
		L674.4,48.4z M603.6,361.1l36.3-51.7c33.9-48.4,54.1-105.3,58.1-164.5h98.3c3.9,59,24.2,115.8,58.1,164.5l36.3,51.7
		c40.5,57.8,65.3,124.9,72,195.1H531.3C538.3,486.1,563.1,418.9,603.6,361.1z M943,1391.6c-13.6,10.3-31.5,13.6-47.8,8.8l-69-19.7
		c-7-2.1-14.2-0.9-20,3c-35.7,23.9-82.6,23.9-118.3,0c-6-3.9-13.3-5.1-20-3l-69,19.7c-28.7,8.5-59-8.2-67.4-37.2
		c-1.5-4.8-2.1-10-2.1-15.1v-308.2h435.2v308.2C964.8,1365.3,956.6,1381.3,943,1391.6z"/>
	<path class="st0" d="M892.2,653c-13.3,0-24.2,10.9-24.2,24.2v48.4c0,13.3,10.9,24.2,24.2,24.2c13.3,0,24.2-10.9,24.2-24.2v-48.4
		C916.4,663.9,905.5,653,892.2,653z"/>
	<path class="st0" d="M892.2,797.9c-13.3,0-24.2,10.9-24.2,24.2v96.8c0,13.3,10.9,24.2,24.2,24.2c13.3,0,24.2-10.9,24.2-24.2v-96.8
		C916.4,808.8,905.5,797.9,892.2,797.9z"/>
</g>
</svg>
