<svg width="23" height="23" viewBox="0 0 23 23" fill="none" xmlns="http://www.w3.org/2000/svg">
<g clip-path="url(#clip0)">
<path d="M22.9955 5.67223C22.9686 5.42484 22.8149 5.2059 22.5851 5.09867L11.8039 0.0674165C11.6112 -0.0224722 11.3887 -0.0224722 11.196 0.0674165L0.414764 5.09867C0.185033 5.2059 0.0313105 5.4248 0.00440234 5.67223C0.00381836 5.6774 0 5.74622 0 5.74999V17.9687C0 18.2626 0.178924 18.5269 0.451824 18.6361L11.2331 22.9486C11.3187 22.9828 11.4094 23 11.5 23C11.5906 23 11.6813 22.9829 11.7669 22.9486L22.5482 18.6361C22.8211 18.5269 23 18.2626 23 17.9687V5.74999C23 5.74622 22.9961 5.67735 22.9955 5.67223ZM11.5 1.51188L20.4729 5.69923L17.0178 7.08129L7.87602 3.2031L11.5 1.51188ZM6.1233 4.02104L15.1232 7.83908L11.5 9.28835L2.52713 5.69923L6.1233 4.02104ZM1.4375 6.81158L10.7812 10.5491V21.2196L1.4375 17.4821V6.81158ZM12.2188 21.2196V10.5491L21.5625 6.81158V17.4821L12.2188 21.2196Z" fill="#5D8026"/>
</g>
<defs>
<clipPath id="clip0">
<rect width="23" height="23" fill="white"/>
</clipPath>
</defs>
</svg>
