<svg width="22" height="22" viewBox="0 0 22 22" fill="none" xmlns="http://www.w3.org/2000/svg">
<path d="M19.1641 1.71875H17.1875V0.6875C17.1875 0.307828 16.8797 0 16.5 0C16.1203 0 15.8125 0.307828 15.8125 0.6875V1.71875H6.1875V0.6875C6.1875 0.307828 5.87971 0 5.5 0C5.12029 0 4.8125 0.307828 4.8125 0.6875V1.71875H2.83594C1.27218 1.71875 0 2.99093 0 4.55469V19.1641C0 20.7278 1.27218 22 2.83594 22H19.1641C20.7278 22 22 20.7278 22 19.1641V4.55469C22 2.99093 20.7278 1.71875 19.1641 1.71875ZM2.83594 3.09375H4.8125V3.78125C4.8125 4.16092 5.12029 4.46875 5.5 4.46875C5.87971 4.46875 6.1875 4.16092 6.1875 3.78125V3.09375H15.8125V3.78125C15.8125 4.16092 16.1203 4.46875 16.5 4.46875C16.8797 4.46875 17.1875 4.16092 17.1875 3.78125V3.09375H19.1641C19.9696 3.09375 20.625 3.74911 20.625 4.55469V6.1875H1.375V4.55469C1.375 3.74911 2.03036 3.09375 2.83594 3.09375ZM19.1641 20.625H2.83594C2.03036 20.625 1.375 19.9696 1.375 19.1641V7.5625H20.625V19.1641C20.625 19.9696 19.9696 20.625 19.1641 20.625Z" fill="#5D8026"/>
</svg>
