<svg width="27" height="27" viewBox="0 0 27 27" fill="none" xmlns="http://www.w3.org/2000/svg">
<g clip-path="url(#clip0)">
<path d="M25.5946 11.8623L23.4258 10.8719L21.5114 7.8178C20.9582 6.93256 19.9844 6.39588 18.9387 6.40141H10.7834C9.83727 6.40141 8.94096 6.8385 8.36556 7.59096L5.89241 10.8276L1.77049 11.9563C0.724794 12.244 0 13.2012 0 14.2856V15.8625C0 17.1959 1.06229 18.2969 2.39569 18.2969H2.74979C3.17581 19.9401 4.85224 20.9249 6.49548 20.4989C7.57437 20.2168 8.42088 19.3758 8.69752 18.2969H17.9926C18.4186 19.9401 20.095 20.9249 21.7383 20.4989C22.8172 20.2168 23.6637 19.3758 23.9403 18.2969H24.6043C25.9377 18.2969 26.9999 17.1959 26.9999 15.8625V14.0643C27.0055 13.1182 26.4522 12.2551 25.5946 11.8623ZM5.72089 19.4809C4.63647 19.4809 3.75675 18.6012 3.75675 17.5168C3.75675 16.4323 4.63647 15.5526 5.72089 15.5526C6.80531 15.5526 7.68502 16.4323 7.68502 17.5168C7.69056 18.5956 6.81085 19.4754 5.72089 19.4809ZM20.9637 19.4809C19.8793 19.4809 18.9995 18.6012 18.9995 17.5168C18.9995 16.4323 19.8793 15.5526 20.9637 15.5526C22.0481 15.5526 22.9278 16.4323 22.9278 17.5168C22.9334 18.5956 22.0536 19.4754 20.9637 19.4809ZM24.6043 17.1903H24.0178C23.8352 15.5028 22.3137 14.2856 20.6262 14.4737C19.1932 14.6286 18.0645 15.7629 17.9096 17.1903H8.77498C8.5924 15.5028 7.07089 14.2856 5.38339 14.4737C3.9504 14.6286 2.82172 15.7629 2.6668 17.1903H2.39016C1.66537 17.1903 1.10102 16.5873 1.10102 15.8625V14.2856C1.09549 13.6936 1.48832 13.1791 2.05819 13.0186L6.36822 11.8401C6.48441 11.8069 6.58954 11.7405 6.66146 11.6409L9.23973 8.26042C9.61043 7.7846 10.1803 7.50796 10.7834 7.50796H18.9387C19.6026 7.50243 20.2278 7.83993 20.5764 8.40427L22.5793 11.6022C22.6346 11.6963 22.7231 11.7682 22.8172 11.8125L25.1299 12.8692C25.5946 13.085 25.8934 13.5498 25.8879 14.0643V15.8625H25.8934C25.8934 16.5873 25.329 17.1903 24.6043 17.1903Z" fill="#5D8026"/>
</g>
<defs>
<clipPath id="clip0">
<rect width="27" height="27" fill="white"/>
</clipPath>
</defs>
</svg>
