<svg width="24" height="18" viewBox="0 0 24 18" fill="none" xmlns="http://www.w3.org/2000/svg">
<path d="M19.8902 3.66016H13.6397C13.1661 3.66016 12.7822 4.04405 12.7822 4.51761C12.7822 4.99118 13.1661 5.37507 13.6397 5.37507H19.8902C20.3638 5.37507 20.7477 4.99118 20.7477 4.51761C20.7477 4.04405 20.3638 3.66016 19.8902 3.66016Z" fill="#5D8026"/>
<path d="M19.8902 8.10742H13.6397C13.1661 8.10742 12.7822 8.49132 12.7822 8.96489C12.7822 9.43846 13.1661 9.82235 13.6397 9.82235H19.8902C20.3638 9.82235 20.7477 9.43846 20.7477 8.96489C20.7477 8.49132 20.3638 8.10742 19.8902 8.10742Z" fill="#5D8026"/>
<path d="M21.6536 0.598633H2.3484C1.06505 0.598633 0.0209961 1.64272 0.0209961 2.92604V15.0775C0.0209961 16.3608 1.06509 17.4049 2.3484 17.4049H21.6536C22.937 17.4049 23.981 16.3608 23.981 15.0775V2.92604C23.981 1.64268 22.937 0.598633 21.6536 0.598633ZM22.266 15.0775C22.266 15.4158 21.9918 15.69 21.6536 15.69H2.3484C2.01014 15.69 1.73593 15.4158 1.73593 15.0775V2.92604C1.73593 2.58777 2.01014 2.31356 2.3484 2.31356H21.6536C21.9918 2.31356 22.266 2.58777 22.266 2.92604V15.0775Z" fill="#5D8026"/>
<path d="M19.8902 12.5537H13.6397C13.1661 12.5537 12.7822 12.9376 12.7822 13.4112C12.7822 13.8847 13.1661 14.2686 13.6397 14.2686H19.8902C20.3638 14.2686 20.7477 13.8847 20.7477 13.4112C20.7477 12.9376 20.3638 12.5537 19.8902 12.5537Z" fill="#5D8026"/>
<path d="M9.50582 9.30777C9.41667 9.23711 9.32504 9.1703 9.23109 9.10737C9.49521 8.82723 9.70501 8.50599 9.85521 8.15095C10.024 7.7518 10.1096 7.32879 10.1096 6.8937C10.1096 6.4586 10.024 6.03559 9.85521 5.63644C9.69252 5.25179 9.45994 4.90664 9.16399 4.61069C8.868 4.31474 8.52294 4.08216 8.13824 3.91948C7.73909 3.75063 7.31608 3.66504 6.88098 3.66504C6.44588 3.66504 6.02283 3.75067 5.62372 3.91948C5.23907 4.08216 4.89396 4.31474 4.59801 4.61069C4.30206 4.90664 4.06948 5.25175 3.90679 5.63644C3.73798 6.03559 3.65239 6.4586 3.65239 6.8937C3.65239 7.32883 3.73798 7.7518 3.90679 8.15095C4.05699 8.50599 4.26683 8.82723 4.53092 9.10737C4.43696 9.1703 4.34529 9.23711 4.25618 9.30777C3.52622 9.88649 3.00121 10.7014 2.77795 11.6025C2.61395 12.2644 2.76106 12.9522 3.18151 13.4895C3.38158 13.7452 3.64046 13.9572 3.93017 14.1025C4.23493 14.2553 4.57679 14.3361 4.91874 14.3361H8.84331C9.18525 14.3361 9.52712 14.2553 9.83187 14.1025C10.1216 13.9572 10.3805 13.7452 10.5805 13.4895C11.001 12.9522 11.1481 12.2644 10.9841 11.6025C10.7608 10.7015 10.2358 9.88649 9.50582 9.30777ZM6.88098 5.38001C7.71699 5.38001 8.39472 6.05773 8.39472 6.8937C8.39472 7.31795 8.21258 7.72898 7.89853 8.01416C6.94611 8.87911 5.36729 8.16884 5.36729 6.8937C5.36724 6.05769 6.04497 5.38001 6.88098 5.38001ZM8.84327 12.6212H4.9187C4.60105 12.6212 4.36611 12.3233 4.44249 12.015C4.58388 11.4443 4.92979 10.9339 5.40519 10.5884C6.68587 9.65752 8.56613 10.1848 9.18853 11.6267C9.24274 11.7522 9.28657 11.8822 9.31944 12.0149C9.39585 12.3233 9.16087 12.6212 8.84327 12.6212Z" fill="#5D8026"/>
</svg>
