<svg width="15" height="15" viewBox="0 0 15 15" fill="none" xmlns="http://www.w3.org/2000/svg">
<g clip-path="url(#clip0)">
<path d="M11.875 7.52836C11.5294 7.52836 11.25 7.80839 11.25 8.15332V13.1534C11.25 13.4977 10.97 13.7783 10.625 13.7783H1.875C1.52996 13.7783 1.25004 13.4977 1.25004 13.1534V4.40332C1.25004 4.05897 1.52996 3.77836 1.875 3.77836H6.87504C7.22065 3.77836 7.5 3.49832 7.5 3.1534C7.5 2.80836 7.22065 2.52832 6.87504 2.52832H1.875C0.841255 2.52832 0 3.36958 0 4.40332V13.1534C0 14.1871 0.841255 15.0284 1.875 15.0284H10.625C11.6588 15.0284 12.5 14.1871 12.5 13.1534V8.15332C12.5 7.80771 12.2206 7.52836 11.875 7.52836Z" fill="#868686"/>
<path d="M5.8602 6.95964C5.81649 7.00336 5.78707 7.05897 5.7746 7.11894L5.33274 9.32902C5.31214 9.43145 5.34465 9.53708 5.41835 9.61146C5.47774 9.67086 5.55773 9.70267 5.63967 9.70267C5.65959 9.70267 5.6803 9.70084 5.7009 9.69649L7.9103 9.25464C7.97152 9.24205 8.02714 9.21275 8.07028 9.16892L13.0153 4.22393L10.8059 2.01465L5.8602 6.95964Z" fill="#868686"/>
<path d="M14.5426 0.486345C13.9333 -0.123053 12.942 -0.123053 12.3332 0.486345L11.4683 1.35129L13.6777 3.56069L14.5426 2.69563C14.8376 2.40129 15.0001 2.00875 15.0001 1.59127C15.0001 1.17379 14.8376 0.78126 14.5426 0.486345Z" fill="#868686"/>
</g>
<defs>
<clipPath id="clip0">
<rect width="15" height="15" fill="white"/>
</clipPath>
</defs>
</svg>
