<svg width="15" height="25" viewBox="0 0 15 25" fill="none" xmlns="http://www.w3.org/2000/svg">
<path d="M0.59529 13.3714L10.737 23.9456C10.9716 24.1903 11.2887 24.3291 11.6297 24.3362C11.9707 24.3433 12.2932 24.2179 12.5378 23.9832L13.3165 23.2365C13.8232 22.7499 13.8401 21.9423 13.3541 21.4357L4.83784 12.5562L13.7272 4.03048C13.9718 3.79572 14.1108 3.47887 14.1179 3.13806C14.125 2.79687 13.9994 2.4745 13.7648 2.22955L13.018 1.4512C12.7832 1.20643 12.4664 1.06767 12.1254 1.06055C11.7844 1.05343 11.4618 1.17884 11.2172 1.41359L0.633024 11.5644C0.387866 11.7999 0.249265 12.1183 0.242893 12.4597C0.234979 12.8024 0.360172 13.1261 0.59529 13.3714Z" fill="#5A5A5A"/>
</svg>
