<?xml version="1.0" encoding="utf-8"?>
<!-- Generator: Adobe Illustrator 25.1.0, SVG Export Plug-In . SVG Version: 6.00 Build 0)  -->
<svg version="1.1" id="Capa_1" xmlns="http://www.w3.org/2000/svg" xmlns:xlink="http://www.w3.org/1999/xlink" x="0px" y="0px"
	 viewBox="0 0 512 512" style="enable-background:new 0 0 512 512;" xml:space="preserve">
<style type="text/css">
	.st0{fill:#5D8026;}
</style>
<g id="Outline">
	<path class="st0" d="M421,132l-33.1-77.4V11.4c0-6.3-5.1-11.4-11.4-11.4H148.9c-6.3,0-11.4,5.1-11.4,11.4v43.2l-33.2,77.5
		c-0.6,1.5-1,2.9-1,4.5v364c0,6.3,5.1,11.4,11.4,11.4h295.7c6.3,0,11.4-5.1,11.4-11.4V136.5C422,135,421.7,133.4,421,132z
		 M156.5,68.3h202.8l-24.4,56.9H132.1L156.5,68.3z M376.5,85.8l16.9,39.4h-33.7L376.5,85.8z M160.3,22.8h204.8v22.8H160.3V22.8z
		 M126.2,147.9H331v341.2H126.2V147.9z M399.3,489.1h-45.5V147.9h45.5V489.1z"/>
	<path class="st0" d="M183.1,386.7h22.8v22.8h-22.8V386.7z"/>
	<path class="st0" d="M228.6,386.7h68.3v22.8h-68.3L228.6,386.7L228.6,386.7z"/>
	<path class="st0" d="M160.3,432.3h136.5v22.8H160.3V432.3z"/>
</g>
</svg>
