<svg width="21" height="12" viewBox="0 0 21 12" fill="none" xmlns="http://www.w3.org/2000/svg">
<path d="M19.7834 5.37C19.6034 5.15 15.3934 0 10.0034 0C4.6134 0 0.403405 5.15 0.223405 5.37C0.0788773 5.54816 0 5.77059 0 6C0 6.22941 0.0788773 6.45184 0.223405 6.63C0.403405 6.85 4.6134 12 10.0034 12C15.3934 12 19.6034 6.85 19.7834 6.63C19.9279 6.45184 20.0068 6.22941 20.0068 6C20.0068 5.77059 19.9279 5.54816 19.7834 5.37ZM10.0034 10C6.5834 10 3.5634 7.27 2.3534 6C3.5634 4.73 6.5834 2 10.0034 2C13.4234 2 16.4434 4.73 17.6534 6C16.4434 7.27 13.4234 10 10.0034 10ZM10.0034 3C9.41006 3 8.83004 3.17595 8.33669 3.50559C7.84335 3.83524 7.45883 4.30377 7.23177 4.85195C7.0047 5.40013 6.94529 6.00333 7.06105 6.58527C7.1768 7.16721 7.46253 7.70176 7.88208 8.12132C8.30164 8.54088 8.83619 8.8266 9.41813 8.94236C10.0001 9.05811 10.6033 8.9987 11.1515 8.77164C11.6996 8.54458 12.1682 8.16006 12.4978 7.66671C12.8275 7.17336 13.0034 6.59334 13.0034 6C13.0034 5.20435 12.6873 4.44129 12.1247 3.87868C11.5621 3.31607 10.7991 3 10.0034 3ZM10.0034 7C9.80562 7 9.61228 6.94135 9.44783 6.83147C9.28339 6.72159 9.15521 6.56541 9.07952 6.38268C9.00384 6.19996 8.98403 5.99889 9.02262 5.80491C9.0612 5.61093 9.15645 5.43275 9.2963 5.29289C9.43615 5.15304 9.61433 5.0578 9.80831 5.01921C10.0023 4.98063 10.2034 5.00043 10.3861 5.07612C10.5688 5.15181 10.725 5.27998 10.8349 5.44443C10.9448 5.60888 11.0034 5.80222 11.0034 6C11.0034 6.26522 10.898 6.51957 10.7105 6.70711C10.523 6.89464 10.2686 7 10.0034 7Z" fill="#DDDDDD"/>
</svg>
