<?xml version="1.0" encoding="utf-8"?>
<!-- Generator: Adobe Illustrator 25.1.0, SVG Export Plug-In . SVG Version: 6.00 Build 0)  -->
<svg version="1.1" id="Capa_1" xmlns="http://www.w3.org/2000/svg" xmlns:xlink="http://www.w3.org/1999/xlink" x="0px" y="0px"
	 viewBox="0 0 512 512" style="enable-background:new 0 0 512 512;" xml:space="preserve">
<style type="text/css">
	.st0{fill:#5D8026;}
</style>
<g id="XMLID_323_">
	<g id="XMLID_1291_">
		<path id="XMLID_1351_" class="st0" d="M502,0H98c-5.5,0-10,4.5-10,10v44H54c-5.5,0-10,4.5-10,10v54H10c-5.5,0-10,4.5-10,10v330
			c0,29.8,24.2,54,54,54h404c29.8,0,54-24.2,54-54V10C512,4.5,507.5,0,502,0z M492,458c0,18.7-15.3,34-34,34H95.9
			c7.6-9.3,12.1-21.1,12.1-34V323c0-5.5-4.5-10-10-10s-10,4.5-10,10v135c0,18.7-15.3,34-34,34s-34-15.3-34-34V138h24v310
			c0,5.5,4.5,10,10,10s10-4.5,10-10V74h24v159c0,5.5,4.5,10,10,10s10-4.5,10-10V20h384V458z"/>
		<path id="XMLID_1376_" class="st0" d="M146,158h308c5.5,0,10-4.5,10-10V76c0-5.5-4.5-10-10-10H146c-5.5,0-10,4.5-10,10v72
			C136,153.5,140.5,158,146,158z M156,86h288v52H156V86z"/>
		<path id="XMLID_1459_" class="st0" d="M146,398h154c5.5,0,10-4.5,10-10V196c0-5.5-4.5-10-10-10H146c-5.5,0-10,4.5-10,10v192
			C136,393.5,140.5,398,146,398z M156,206h134v172H156V206z"/>
		<path id="XMLID_1460_" class="st0" d="M454,186H348c-5.5,0-10,4.5-10,10s4.5,10,10,10h106c5.5,0,10-4.5,10-10S459.5,186,454,186z"
			/>
		<path id="XMLID_1476_" class="st0" d="M454,234H348c-5.5,0-10,4.5-10,10s4.5,10,10,10h106c5.5,0,10-4.5,10-10S459.5,234,454,234z"
			/>
		<path id="XMLID_1533_" class="st0" d="M454,282H348c-5.5,0-10,4.5-10,10s4.5,10,10,10h106c5.5,0,10-4.5,10-10S459.5,282,454,282z"
			/>
		<path id="XMLID_1535_" class="st0" d="M454,330H348c-5.5,0-10,4.5-10,10s4.5,10,10,10h106c5.5,0,10-4.5,10-10S459.5,330,454,330z"
			/>
	</g>
</g>
</svg>
