<svg width="36" height="36" viewBox="0 0 36 36" fill="none" xmlns="http://www.w3.org/2000/svg">
<path d="M34.949 28.3367L32.2821 13.2417C31.7301 10.1173 29.0267 7.84969 25.854 7.84969H22.0812C22.6517 7.03884 22.988 6.05201 22.988 4.98748C22.988 2.23741 20.7505 0 18.0004 0C15.2504 0 13.0129 2.23741 13.0129 4.98755C13.0129 6.05208 13.3492 7.03891 13.9196 7.84976H10.1468C6.97415 7.84976 4.2707 10.1174 3.71868 13.2417L1.05187 28.3367C0.715284 30.2421 1.23546 32.185 2.47886 33.6674C3.72234 35.1499 5.54512 36 7.48005 36H28.5209C30.4559 36 32.2786 35.1498 33.522 33.6675C34.7655 32.1851 35.2855 30.2421 34.949 28.3367ZM18.0004 2.12534C19.5786 2.12534 20.8626 3.40931 20.8626 4.98755C20.8626 6.56578 19.5786 7.84976 18.0004 7.84976C16.4223 7.84976 15.1382 6.56578 15.1382 4.98755C15.1382 3.40931 16.4222 2.12534 18.0004 2.12534ZM31.8937 32.3016C31.0551 33.3013 29.8258 33.8747 28.5209 33.8747H7.48005C6.17519 33.8747 4.94585 33.3013 4.1073 32.3016C3.26875 31.3018 2.91789 29.9914 3.14493 28.7065L5.81174 13.6115C6.18405 11.5045 8.00725 9.97502 10.1469 9.97502H25.8542C27.9939 9.97502 29.8171 11.5043 30.1893 13.6114L32.8561 28.7064C33.0831 29.9914 32.7321 31.3018 31.8937 32.3016Z" fill="#5D8026"/>
<path d="M14.5058 21.9249L17.1687 19.1733C17.5769 18.7516 17.5658 18.0789 17.1441 17.6707C16.7222 17.2624 16.0495 17.2736 15.6413 17.6953L12.6632 20.7727V18.4343C12.6632 17.8474 12.1874 17.3716 11.6005 17.3716C11.0136 17.3716 10.5378 17.8474 10.5378 18.4343V25.4157C10.5378 26.0026 11.0136 26.4784 11.6005 26.4784C12.1874 26.4784 12.6632 26.0026 12.6632 25.4157V23.0773L15.6413 26.1547C15.8497 26.3701 16.1273 26.4784 16.4051 26.4784C16.6712 26.4784 16.9377 26.379 17.1441 26.1793C17.5658 25.7712 17.5768 25.0985 17.1687 24.6767L14.5058 21.9249Z" fill="#5D8026"/>
<path d="M24.3996 21.1624H22.8043C22.2174 21.1624 21.7416 21.6382 21.7416 22.2251C21.7416 22.812 22.2174 23.2878 22.8043 23.2878H23.3194C23.2181 23.8914 22.692 24.3529 22.0599 24.3529C21.3558 24.3529 20.783 23.7801 20.783 23.076V20.7738C20.783 20.0697 21.3558 19.4968 22.0599 19.4968C22.4561 19.4968 22.8233 19.6763 23.0676 19.9893C23.4287 20.4518 24.0965 20.5342 24.5592 20.1731C25.0218 19.8119 25.1041 19.1442 24.7431 18.6816C24.0932 17.8491 23.1152 17.3716 22.06 17.3716C20.184 17.3716 18.6577 18.8979 18.6577 20.7739V23.076C18.6577 24.952 20.184 26.4783 22.06 26.4783C23.936 26.4783 25.4623 24.952 25.4623 23.076V22.2253C25.4623 21.6382 24.9865 21.1624 24.3996 21.1624Z" fill="#5D8026"/>
</svg>
