<svg width="83" height="94" viewBox="0 0 83 94" fill="none" xmlns="http://www.w3.org/2000/svg">
<path d="M41.3086 0C27.6421 0 16.5234 11.1186 16.5234 24.7852C16.5234 38.4517 27.6421 49.5703 41.3086 49.5703C54.9751 49.5703 66.0938 38.4517 66.0938 24.7852C66.0938 11.1186 54.9751 0 41.3086 0Z" fill="#DDDDDD"/>
<path d="M72.1461 65.7624C65.3605 58.8725 56.3649 55.0781 46.8164 55.0781H35.8008C26.2524 55.0781 17.2567 58.8725 10.4711 65.7624C3.71869 72.6185 0 81.6686 0 91.2461C0 92.767 1.23302 94 2.75391 94H79.8633C81.3842 94 82.6172 92.767 82.6172 91.2461C82.6172 81.6686 78.8985 72.6185 72.1461 65.7624Z" fill="#DDDDDD"/>
</svg>
