<svg width="23" height="20" viewBox="0 0 23 20" fill="none" xmlns="http://www.w3.org/2000/svg">
<path d="M23 12.1353C22.9986 14.2199 22.1691 16.2188 20.6934 17.6932C19.2178 19.1677 17.2166 19.9973 15.1291 20H0.958693C0.704432 20 0.460585 19.8991 0.280795 19.7196C0.101005 19.5401 0 19.2965 0 19.0426C0 18.7887 0.101005 18.5452 0.280795 18.3657C0.460585 18.1861 0.704432 18.0853 0.958693 18.0853H15.1291C16.6994 18.0712 18.2006 17.4384 19.306 16.3246C20.4114 15.2108 21.0316 13.7061 21.0316 12.1379C21.0316 10.5697 20.4114 9.06504 19.306 7.95122C18.2006 6.8374 16.6994 6.20461 15.1291 6.19054H3.6344L6.77173 8.76632C6.8696 8.84595 6.95076 8.94411 7.01054 9.05515C7.07033 9.16619 7.10756 9.28792 7.12011 9.41337C7.13266 9.53882 7.12027 9.6655 7.08366 9.78616C7.04704 9.90681 6.98693 10.0191 6.90676 10.1164C6.82659 10.2138 6.72795 10.2945 6.6165 10.3537C6.50505 10.4129 6.38298 10.4496 6.25731 10.4615C6.13163 10.4735 6.00483 10.4606 5.88417 10.4235C5.7635 10.3864 5.65137 10.3259 5.55419 10.2454L0.349923 5.97226C0.338419 5.96269 0.32979 5.9512 0.318765 5.94115C0.29381 5.91854 0.270126 5.89457 0.247822 5.86934L0.240153 5.86216C0.233442 5.85451 0.224813 5.84876 0.218103 5.8411V5.83823C0.208036 5.82626 0.200846 5.81238 0.191739 5.79994C0.172883 5.77492 0.15544 5.74887 0.13949 5.72191C0.135655 5.71569 0.130382 5.70994 0.127027 5.70324C0.123672 5.69654 0.115043 5.68745 0.110729 5.67883C0.106415 5.67021 0.100663 5.65298 0.0949106 5.64053C0.0819682 5.61277 0.0709435 5.58453 0.0603978 5.55533L0.0570424 5.54671C0.0474555 5.51943 0.0388271 5.49166 0.0316369 5.4639C0.0244467 5.43614 0.0196535 5.40694 0.0153393 5.37774C0.0124633 5.36003 0.00671115 5.34327 0.00527311 5.32556C0.00383507 5.30785 0.00527311 5.29158 0.00527311 5.27482C0.00527311 5.25807 0.000958623 5.24754 0.000958623 5.23318C0.000958623 5.21882 0.00479377 5.20541 0.00527311 5.19105C0.00575246 5.17669 0.00527311 5.15755 0.00527311 5.14079C0.00527311 5.12404 0.0124633 5.10585 0.0153393 5.08814C0.0196535 5.05894 0.024926 5.03022 0.0316369 5.00197C0.0383477 4.97373 0.0474555 4.94645 0.0570424 4.91916L0.0603978 4.91055C0.0709435 4.88135 0.0819682 4.85311 0.0949106 4.82534C0.100663 4.8129 0.104018 4.79949 0.110729 4.78705C0.11744 4.7746 0.122233 4.77125 0.127027 4.76263C0.13182 4.75402 0.135655 4.75019 0.13949 4.74397C0.155129 4.71703 0.172252 4.69098 0.19078 4.66594C0.199887 4.65349 0.207078 4.63961 0.217144 4.62765V4.62525C0.226731 4.61329 0.238715 4.60515 0.248781 4.59366C0.270831 4.56973 0.29336 4.54579 0.317807 4.52473C0.328832 4.51468 0.33746 4.50319 0.348964 4.49362L0.353758 4.48931L5.5561 0.220432C5.65328 0.139955 5.76542 0.0794377 5.88608 0.042354C6.00674 0.00527024 6.13355 -0.00764934 6.25923 0.00433664C6.3849 0.0163226 6.50697 0.0529779 6.61842 0.112199C6.72987 0.17142 6.82851 0.25204 6.90868 0.349431C6.98885 0.446822 7.04896 0.559066 7.08557 0.679719C7.12219 0.800373 7.13457 0.92706 7.12203 1.05251C7.10948 1.17795 7.07225 1.29969 7.01246 1.41073C6.95267 1.52177 6.87152 1.61992 6.77364 1.69956L3.63632 4.27582H15.131C17.2174 4.2786 19.2175 5.10759 20.6927 6.58096C22.1678 8.05434 22.9976 10.0518 23 12.1353Z" fill="#5A5A5A"/>
</svg>
