<?xml version="1.0" encoding="utf-8"?>
<!-- Generator: Adobe Illustrator 25.1.0, SVG Export Plug-In . SVG Version: 6.00 Build 0)  -->
<svg version="1.1" id="Capa_1" xmlns="http://www.w3.org/2000/svg" xmlns:xlink="http://www.w3.org/1999/xlink" x="0px" y="0px"
	 viewBox="0 0 512 512" style="enable-background:new 0 0 512 512;" xml:space="preserve">
<style type="text/css">
	.st0{fill:#5D8026;}
</style>
<g>
	<path class="st0" d="M282.1,367.5l-20.6-13.6c-4.6-3-10.8-1.8-13.9,2.8c-1.8,2.8-2.1,6.2-1,9.1h-51.2c-1.4,0-2.1-0.8-2.5-1.5
		c-0.4-0.7-0.6-1.7,0.1-2.9l3.7-5.7c3-4.6,1.7-10.8-2.9-13.8c-4.6-3-10.8-1.7-13.8,2.9l-3.7,5.7c-4.6,7-5,16-1,23.3s11.7,12,20.1,12
		h51.2c-1.1,2.9-0.9,6.3,1,9.1c1.9,2.9,5.1,4.5,8.4,4.5c1.9,0,3.8-0.5,5.5-1.7l20.6-13.6c2.8-1.9,4.5-5,4.5-8.3
		C286.6,372.5,284.9,369.3,282.1,367.5z"/>
	<path class="st0" d="M316,301.5c2-5.1-0.5-10.9-5.6-13l-22.9-9.1c-3.1-1.2-6.7-0.8-9.4,1.1s-4.4,5.1-4.3,8.5l0.6,24.7
		c0.1,5.4,4.6,9.7,10,9.7c0.1,0,0.2,0,0.3,0c2.8-0.1,5.4-1.3,7.1-3.2l27.1,41.4c0.8,1.2,0.5,2.2,0.1,2.9c-0.4,0.7-1.1,1.5-2.5,1.5
		h-8.6c-5.5,0-10,4.5-10,10s4.5,10,10,10h8.6c8.4,0,16.1-4.6,20.1-12c4-7.4,3.6-16.3-1-23.3l-28-42.8
		C311.3,307.4,314.6,305.1,316,301.5L316,301.5z"/>
	<path class="st0" d="M198.8,334.9c1.7,1.2,3.7,1.8,5.7,1.8c1.3,0,2.5-0.2,3.7-0.7l22.9-9.1c5.1-2,7.6-7.9,5.6-13
		c-1.4-3.6-4.7-5.9-8.3-6.3l25.3-38.6c0.7-1.1,1.8-1.3,2.3-1.3c0.6,0,1.6,0.2,2.3,1.3l0.6,0.9c3,4.6,9.2,5.9,13.8,2.9
		c4.6-3,5.9-9.2,2.9-13.8l-0.6-0.9c-4.2-6.5-11.4-10.3-19.1-10.3s-14.9,3.9-19.1,10.3l-24.4,37.3c-1.8-1.9-4.3-3.2-7.1-3.3
		c-5.5-0.2-10.1,4.2-10.3,9.7l-0.6,24.7C194.4,329.8,196,333,198.8,334.9L198.8,334.9z"/>
	<path class="st0" d="M435.7,460.2L413.9,43.5c0-0.2,0-0.3,0-0.5C411.4,18.5,391,0,366.3,0c-7.2,0-13.5,3-18.5,8.7
		c-9.5,11-13.8,32.3-13.1,65.4c0.5,21.9,3,41,3.3,43.5c0.5,5.8-1.4,11.3-5.2,15.2c-1.5,1.5-3.1,2.8-8.4,2.9c-1.6,0-2.4,0-2.8-0.1
		c-0.2-0.2-0.6-0.5-0.9-0.8c-1.3-1.2-3.2-2.8-6.1-4.6c-12-7.7-27.7-7.6-40,0.1c-5.6,3.5-12.1,5.4-18.7,5.4c-6.7,0-13.1-1.9-18.7-5.4
		c-12.3-7.7-28-7.8-39.9-0.1c-2.9,1.8-4.7,3.4-6.1,4.6c-0.3,0.3-0.7,0.6-0.9,0.8c-0.4,0.1-1.2,0.1-2.8,0.1c-5.3-0.1-7-1.4-8.4-2.9
		c-3.8-3.9-5.7-9.4-5.2-15.2c0.3-2.4,2.8-21.7,3.2-43.7c0.6-33.1-3.8-54.5-13.2-65.4C159,2.9,152.7,0,145.7,0
		C121,0,100.6,18.5,98.1,43c0,0.2,0,0.3,0,0.5L76.3,460.2c-0.7,13.6,4.1,26.5,13.4,36.4c9.4,9.9,22.1,15.3,35.7,15.3h261.2
		c13.6,0,26.3-5.4,35.7-15.3C431.7,486.8,436.4,473.8,435.7,460.2L435.7,460.2z M407.8,482.9c-5.6,5.9-13.1,9.1-21.2,9.1H125.4
		c-8.1,0-15.6-3.2-21.2-9.1c-5.6-5.9-8.4-13.5-8-21.6L118,44.8c1.5-14.1,13.4-24.8,27.6-24.8c0.8,0,1.8,0.1,3.1,1.7
		c10.7,12.2,9.5,62,5.3,93.4c0,0.1,0,0.3,0,0.4c-1.1,11.8,2.8,23.2,10.9,31.3c5.8,5.9,12.6,8.6,22.1,8.9c8.9,0.2,12.6-1.7,17.3-5.8
		c1.1-0.9,2.1-1.8,3.7-2.8c5.6-3.6,12.7-3.5,18.5,0.2c8.8,5.5,18.9,8.4,29.4,8.4c10.4,0,20.6-2.9,29.4-8.4c5.9-3.7,13-3.8,18.5-0.2
		c1.6,1.1,2.7,1.9,3.7,2.8c4.7,4.1,8.5,6,17.3,5.8c9.5-0.3,16.4-3,22.1-8.9c8-8.1,12-19.6,10.9-31.3c0-0.1,0-0.3-0.1-0.4
		c-4.4-31.3-5.7-80.9,5-93.3c1.4-1.6,2.5-1.8,3.4-1.8c14.3,0,26.1,10.6,27.6,24.8l21.7,416.5C416.2,469.4,413.3,477,407.8,482.9
		L407.8,482.9z"/>
</g>
</svg>
