<?xml version="1.0" encoding="utf-8"?>
<!-- Generator: Adobe Illustrator 25.1.0, SVG Export Plug-In . SVG Version: 6.00 Build 0)  -->
<svg version="1.1" id="Capa_1" xmlns="http://www.w3.org/2000/svg" xmlns:xlink="http://www.w3.org/1999/xlink" x="0px" y="0px"
	 viewBox="0 0 1451.3 1451.3" style="enable-background:new 0 0 1451.3 1451.3;" xml:space="preserve">
<style type="text/css">
	.st0{fill:#5E802C;}
</style>
<g>
	<path class="st0" d="M801,1038.8l-58.2-38.4c-13-8.5-30.5-5.1-39.3,7.9c-5.1,7.9-5.9,17.5-2.8,25.7H555.9c-4,0-5.9-2.3-7.1-4.2
		c-1.1-2-1.7-4.8,0.3-8.2l10.5-16.1c8.5-13,4.8-30.5-8.2-39c-13-8.5-30.5-4.8-39,8.2L502,990.8c-13,19.8-14.1,45.2-2.8,65.9
		s33.1,33.9,56.8,33.9h144.7c-3.1,8.2-2.5,17.8,2.8,25.7c5.4,8.2,14.4,12.7,23.7,12.7c5.4,0,10.7-1.4,15.5-4.8l58.2-38.4
		c7.9-5.4,12.7-14.1,12.7-23.5C813.7,1052.9,808.9,1043.9,801,1038.8z"/>
	<path class="st0" d="M896.8,852.2c5.7-14.4-1.4-30.8-15.8-36.7l-64.7-25.7c-8.8-3.4-18.9-2.3-26.6,3.1c-7.6,5.4-12.4,14.4-12.2,24
		l1.7,69.8c0.3,15.3,13,27.4,28.3,27.4c0.3,0,0.6,0,0.8,0c7.9-0.3,15.3-3.7,20.1-9l76.6,117c2.3,3.4,1.4,6.2,0.3,8.2
		c-1.1,2-3.1,4.2-7.1,4.2h-24.3c-15.5,0-28.3,12.7-28.3,28.3s12.7,28.3,28.3,28.3h24.3c23.7,0,45.5-13,56.8-33.9
		c11.3-20.9,10.2-46.1-2.8-65.9l-79.1-121C883.6,868.9,892.9,862.4,896.8,852.2L896.8,852.2z"/>
	<path class="st0" d="M565.6,946.7c4.8,3.4,10.5,5.1,16.1,5.1c3.7,0,7.1-0.6,10.5-2l64.7-25.7c14.4-5.7,21.5-22.3,15.8-36.7
		c-4-10.2-13.3-16.7-23.5-17.8l71.5-109.1c2-3.1,5.1-3.7,6.5-3.7c1.7,0,4.5,0.6,6.5,3.7l1.7,2.5c8.5,13,26,16.7,39,8.2
		c13-8.5,16.7-26,8.2-39l-1.7-2.5c-11.9-18.4-32.2-29.1-54-29.1s-42.1,11-54,29.1L604,835c-5.1-5.4-12.2-9-20.1-9.3
		c-15.5-0.6-28.5,11.9-29.1,27.4l-1.7,69.8C553.1,932.2,557.6,941.3,565.6,946.7L565.6,946.7z"/>
	<path class="st0" d="M1235.2,1300.8L1173.6,123c0-0.6,0-0.8,0-1.4C1166.5,52.3,1108.8,0,1039,0c-20.4,0-38.2,8.5-52.3,24.6
		c-26.9,31.1-39,91.3-37,184.9c1.4,61.9,8.5,115.9,9.3,123c1.4,16.4-4,31.9-14.7,43c-4.2,4.2-8.8,7.9-23.7,8.2c-4.5,0-6.8,0-7.9-0.3
		c-0.6-0.6-1.7-1.4-2.5-2.3c-3.7-3.4-9-7.9-17.2-13c-33.9-21.8-78.3-21.5-113.1,0.3c-15.8,9.9-34.2,15.3-52.9,15.3
		c-18.9,0-37-5.4-52.9-15.3c-34.8-21.8-79.1-22-112.8-0.3c-8.2,5.1-13.3,9.6-17.2,13c-0.8,0.8-2,1.7-2.5,2.3
		c-1.1,0.3-3.4,0.3-7.9,0.3c-15-0.3-19.8-4-23.7-8.2c-10.7-11-16.1-26.6-14.7-43c0.8-6.8,7.9-61.3,9-123.5
		c1.7-93.6-10.7-154.1-37.3-184.9C453.1,8.2,435.2,0,415.5,0C345.6,0,288,52.3,280.9,121.5c0,0.6,0,0.8,0,1.4l-61.6,1177.9
		c-2,38.4,11.6,74.9,37.9,102.9c26.6,28,62.5,43.2,100.9,43.2h738.3c38.4,0,74.3-15.3,100.9-43.2
		C1223.9,1376,1237.2,1339.3,1235.2,1300.8L1235.2,1300.8z M1156.3,1365c-15.8,16.7-37,25.7-59.9,25.7H358.1
		c-22.9,0-44.1-9-59.9-25.7c-15.8-16.7-23.7-38.2-22.6-61.1l61.6-1177.3c4.2-39.9,37.9-70.1,78-70.1c2.3,0,5.1,0.3,8.8,4.8
		c30.2,34.5,26.9,175.3,15,264c0,0.3,0,0.8,0,1.1c-3.1,33.4,7.9,65.6,30.8,88.5c16.4,16.7,35.6,24.3,62.5,25.2
		c25.2,0.6,35.6-4.8,48.9-16.4c3.1-2.5,5.9-5.1,10.5-7.9c15.8-10.2,35.9-9.9,52.3,0.6c24.9,15.5,53.4,23.7,83.1,23.7
		c29.4,0,58.2-8.2,83.1-23.7c16.7-10.5,36.7-10.7,52.3-0.6c4.5,3.1,7.6,5.4,10.5,7.9c13.3,11.6,24,17,48.9,16.4
		c26.9-0.8,46.4-8.5,62.5-25.2c22.6-22.9,33.9-55.4,30.8-88.5c0-0.3,0-0.8-0.3-1.1c-12.4-88.5-16.1-228.7,14.1-263.7
		c4-4.5,7.1-5.1,9.6-5.1c40.4,0,73.8,30,78,70.1l61.3,1177.3C1180.1,1326.8,1171.9,1348.3,1156.3,1365L1156.3,1365z"/>
</g>
</svg>
