<?xml version="1.0" encoding="utf-8"?>
<!-- Generator: Adobe Illustrator 25.1.0, SVG Export Plug-In . SVG Version: 6.00 Build 0)  -->
<svg version="1.1" id="Capa_1" xmlns="http://www.w3.org/2000/svg" xmlns:xlink="http://www.w3.org/1999/xlink" x="0px" y="0px"
	 viewBox="0 0 1451.3 1451.3" style="enable-background:new 0 0 1451.3 1451.3;" xml:space="preserve">
<style type="text/css">
	.st0{fill:#5E802C;}
</style>
<path class="st0" d="M873.9,540.9c-36-57.8-55-124.3-55-192.3V24.2c0-13.3-10.9-24.2-24.2-24.2H649.5c-13.3,0-24.2,10.9-24.2,24.2
	v324.4c0,68-19,134.6-55,192.3l-3.3,5.4c-40.8,65.3-62.6,140.9-62.6,218v662.8c0,13.3,10.9,24.2,24.2,24.2h387
	c13.3,0,24.2-10.9,24.2-24.2V764.1c0-77.1-21.8-152.7-62.6-218L873.9,540.9z M673.7,48.4h96.8v48.4h-96.8V48.4z M891.4,1403H552.7
	V764.1c0-68,19-134.6,55-192.3l3.3-5.4c40.8-65.3,62.6-140.9,62.6-218V145.1h96.8v203.5c0,77.1,21.8,152.7,62.6,218l3.3,5.1
	c36,57.8,55,124.3,55,192.3L891.4,1403L891.4,1403z"/>
</svg>
