<svg id="Capa_1" data-name="Capa 1" xmlns="http://www.w3.org/2000/svg" viewBox="0 0 176 480.01"><defs><style>.cls-1{fill:#5d8026;}</style></defs><g id="outline"><path class="cls-1" d="M316.6,126.33l-12-17.1A91.54,91.54,0,0,1,288.31,64a8,8,0,0,0,8-8V32a16,16,0,0,0-16-16H232a16,16,0,0,0-16,16V56a8,8,0,0,0,7.69,8,91.52,91.52,0,0,1-16.32,45.25l-12,17.1A150.83,150.83,0,0,0,168,213.26V462a34,34,0,0,0,43.34,32.69l19.48-5.56a51.13,51.13,0,0,0,50.36,0l19.48,5.56A33.93,33.93,0,0,0,344,462V213.26A150.83,150.83,0,0,0,316.6,126.33ZM184,216H328V344H184ZM232,32h48.3V48H232ZM208.51,135.51l12-17.1A107.4,107.4,0,0,0,239.73,64h32.54a107.4,107.4,0,0,0,19.25,54.41l12,17.1A134.75,134.75,0,0,1,327.33,200H184.67A134.75,134.75,0,0,1,208.51,135.51ZM320.84,476.35a17.89,17.89,0,0,1-15.79,2.94l-22.85-6.53a8,8,0,0,0-6.64,1,35.16,35.16,0,0,1-39.12,0,8,8,0,0,0-6.64-1L207,479.29A18,18,0,0,1,184,462V360H328V462A17.86,17.86,0,0,1,320.84,476.35Z" transform="translate(-168 -16)"/><path class="cls-1" d="M304,232a8,8,0,0,0-8,8v16a8,8,0,0,0,16,0V240A8,8,0,0,0,304,232Z" transform="translate(-168 -16)"/><path class="cls-1" d="M304,280a8,8,0,0,0-8,8v32a8,8,0,0,0,16,0V288A8,8,0,0,0,304,280Z" transform="translate(-168 -16)"/></g></svg>