<?xml version="1.0" encoding="utf-8"?>
<!-- Generator: Adobe Illustrator 25.1.0, SVG Export Plug-In . SVG Version: 6.00 Build 0)  -->
<svg version="1.1" id="Capa_1" xmlns="http://www.w3.org/2000/svg" xmlns:xlink="http://www.w3.org/1999/xlink" x="0px" y="0px"
	 viewBox="0 0 480 480" style="enable-background:new 0 0 480 480;" xml:space="preserve">
<style type="text/css">
	.st0{fill:#5D8026;}
</style>
<path class="st0" d="M290.2,178.9c-11.9-19.1-18.2-41.1-18.2-63.6V8c0-4.4-3.6-8-8-8h-48c-4.4,0-8,3.6-8,8v107.3
	c0,22.5-6.3,44.5-18.2,63.6l-1.1,1.8c-13.5,21.6-20.7,46.6-20.7,72.1V472c0,4.4,3.6,8,8,8h128c4.4,0,8-3.6,8-8V252.7
	c0-25.5-7.2-50.5-20.7-72.1L290.2,178.9z M224,16h32v16h-32V16z M296,464H184V252.7c0-22.5,6.3-44.5,18.2-63.6l1.1-1.8
	c13.5-21.6,20.7-46.6,20.7-72.1V48h32v67.3c0,25.5,7.2,50.5,20.7,72.1l1.1,1.7c11.9,19.1,18.2,41.1,18.2,63.6V464z"/>
</svg>
