<?xml version="1.0" encoding="utf-8"?>
<!-- Generator: Adobe Illustrator 25.1.0, SVG Export Plug-In . SVG Version: 6.00 Build 0)  -->
<svg version="1.1" id="Capa_1" xmlns="http://www.w3.org/2000/svg" xmlns:xlink="http://www.w3.org/1999/xlink" x="0px" y="0px"
	 viewBox="0 0 1451.3 1451.3" style="enable-background:new 0 0 1451.3 1451.3;" xml:space="preserve">
<style type="text/css">
	.st0{fill:#5E802C;}
</style>
<path class="st0" d="M1425.8,225c-13.3,0-24.1,10.9-24.1,24.1v1058.5l-102-27.1c-181.3-47.7-372.9-39.2-549.6,24.1v-86.3
	c146.6-55.5,306.8-64,458.5-24.1l114,30.5c2.1,0.3,4.2,0.3,6.3,0c5.4,0,10.6-1.5,14.8-4.8c6-4.5,9.4-11.8,9.4-19.3V832.2
	c0-13.3-10.9-24.1-24.1-24.1s-24.1,10.9-24.1,24.1v337.9l-83.9-22.3c-155.4-40.7-319.5-33.5-470.9,19.9V156.5
	c146.6-55.5,306.8-64,458.5-24.1l96.5,25.6v577.7c0,13.3,10.9,24.1,24.1,24.1s24.1-10.9,24.1-24.1V140.5
	c0.3-11.2-6.9-21.1-17.8-24.1l-114.3-29.6C1057.2,43.4,883.7,53.3,726,115.2C567.9,53.6,394.7,44,230.6,86.8l-114.3,30.8
	c-10.9,3-18.4,13-17.8,24.1v280.5c0,13.3,10.9,24.1,24.1,24.1s24.1-10.9,24.1-24.1V159.2l96.5-25.6
	c151.4-40.4,311.9-32.3,458.5,22.9v1011.2c-151.4-53.4-315.5-60-471.2-19l-83.9,21.4V518.5c0-13.3-10.9-24.1-24.1-24.1
	s-24.1,10.9-24.1,24.1v683.9c0,7.5,3.3,14.8,9.4,19.3c4.2,3.3,9.4,4.8,14.8,4.8c2.1,0.3,4.2,0.3,6.3,0l114.3-31.1
	c151.7-39.8,311.9-31.4,458.5,24.1v84.8c-176.5-63.3-368-71.8-549.6-24.1l-102,27.5V249.1c0-13.3-10.9-24.1-24.1-24.1
	S2,235.8,2,249.1V1339c0,7.5,3.6,14.5,9.4,19c6,4.5,13.6,6.3,21.1,4.2l132.4-35.3c181.6-48,373.8-36.5,548.4,33.2l3.3,1.2
	c5.7,2.4,12.1,2.4,17.8,0l3.3-1.2c174.7-69.7,367.4-81.4,549.3-33.2l132.4,36.2c2.1,0.3,4.2,0.3,6.3,0c13.3,0,24.1-10.9,24.1-24.1
	V249.1C1449.9,235.8,1439.1,225,1425.8,225z"/>
<path class="st0" d="M612.9,663.3c-114.6-32.9-236.2-32.9-350.8,0c-13.3,3.6-21.1,17.2-17.5,30.8c3.6,13.6,17.2,21.1,30.8,17.5
	c106.2-30.5,218.7-30.5,324.9,0c2.1,0.3,4.2,0.3,6.6,0c13.3,1.8,25.6-7.5,27.5-20.8C635.5,677.5,626.2,665.1,612.9,663.3z"/>
<path class="st0" d="M612.9,783.9c-114.6-32.9-236.2-32.9-350.8,0c-13.3,3.6-21.1,17.2-17.5,30.8c3.6,13.6,17.2,21.1,30.8,17.5
	c106.2-30.5,218.7-30.5,324.9,0c2.1,0.3,4.2,0.3,6.6,0c13.3,1.8,25.6-7.5,27.5-20.8C635.5,798.1,626.2,785.8,612.9,783.9z"/>
<path class="st0" d="M612.9,904.6c-114.6-32.9-236.2-32.9-350.8,0c-13.3,3.6-21.1,17.2-17.5,30.8c3.6,13.6,17.2,21.1,30.8,17.5
	c106.2-30.5,218.7-30.5,324.9,0c2.1,0.3,4.2,0.3,6.6,0c13.3,1.8,25.6-7.5,27.5-20.8C635.5,918.8,626.2,906.4,612.9,904.6z"/>
<path class="st0" d="M823.5,301.3h5.7l96.5-24.1c13.3-3.3,21.4-16.6,18.4-29.9c-3.3-13.3-16.6-21.4-29.9-18.4L817.8,253
	c-13.3,1.5-22.9,13.6-21.1,27.1C798.1,293.4,810.2,302.8,823.5,301.3z"/>
<path class="st0" d="M799.4,379.4c3.3,13,16.3,20.8,29.3,17.5l96.5-24.1c13.3-3,21.4-16,18.4-29.3c-3-13.3-16-21.4-29.3-18.4
	l-96.5,24.1c-6.6,1.5-12.1,5.4-15.7,10.9C798.7,366.1,797.5,373.1,799.4,379.4z"/>
<path class="st0" d="M799.4,500.1c3.3,13,16.3,20.8,29.3,17.5l96.5-24.1c13.3-3,21.4-16,18.4-29.3c-3-13.3-16-21.4-29.3-18.4
	l-96.5,24.1c-6.6,1.5-12.1,5.4-15.7,10.9C798.7,486.8,797.5,493.7,799.4,500.1z"/>
<path class="st0" d="M823.5,621.6c3.6,12.7,16.9,20.2,29.6,16.6c106.2-30.5,218.7-30.5,324.9,0c2.4,0.9,4.8,1.2,7.5,0.9
	c13.3,1.8,25.6-7.5,27.5-20.8c1.8-13.3-7.5-25.6-20.8-27.5c-114.6-32.9-236.2-32.9-350.8,0c-6.6,1.5-12.1,5.7-15.4,11.5
	C822.3,608.4,821.4,615.3,823.5,621.6z"/>
<path class="st0" d="M1185.5,759.8c13.3,1.8,25.6-7.5,27.5-20.8c1.8-13.3-7.5-25.6-20.8-27.5c-114.6-32.9-236.2-32.9-350.8,0
	c-13.3,3.6-21.1,17.2-17.5,30.8s17.2,21.1,30.8,17.5c106.2-30.5,218.7-30.5,324.9,0C1181.3,760.1,1183.4,760.1,1185.5,759.8z"/>
</svg>
