<?xml version="1.0" encoding="utf-8"?>
<!-- Generator: Adobe Illustrator 25.1.0, SVG Export Plug-In . SVG Version: 6.00 Build 0)  -->
<svg version="1.1" id="Capa_1" xmlns="http://www.w3.org/2000/svg" xmlns:xlink="http://www.w3.org/1999/xlink" x="0px" y="0px"
	 viewBox="0 0 480 480" style="enable-background:new 0 0 480 480;" xml:space="preserve">
<style type="text/css">
	.st0{fill:#5D8026;}
</style>
<path class="st0" d="M472,78.6c-4.4,0-8,3.6-8,8v350.9l-33.8-9c-60.1-15.8-123.6-13-182.2,8v-28.6c48.6-18.4,101.7-21.2,152-8
	l37.8,10.1c0.7,0.1,1.4,0.1,2.1,0c1.8,0,3.5-0.5,4.9-1.6c2-1.5,3.1-3.9,3.1-6.4V279.9c0-4.4-3.6-8-8-8c-4.4,0-8,3.6-8,8v112
	l-27.8-7.4c-51.5-13.5-105.9-11.1-156.1,6.6V55.9c48.6-18.4,101.7-21.2,152-8l32,8.5v191.5c0,4.4,3.6,8,8,8s8-3.6,8-8V50.6
	c0.1-3.7-2.3-7-5.9-8l-37.9-9.8C349.8,18.4,292.3,21.7,240,42.2c-52.4-20.4-109.8-23.6-164.2-9.4L37.9,43c-3.6,1-6.1,4.3-5.9,8v93
	c0,4.4,3.6,8,8,8s8-3.6,8-8V56.8l32-8.5c50.2-13.4,103.4-10.7,152,7.6v335.2c-50.2-17.7-104.6-19.9-156.2-6.3L48,391.9v-216
	c0-4.4-3.6-8-8-8s-8,3.6-8,8v226.7c0,2.5,1.1,4.9,3.1,6.4c1.4,1.1,3.1,1.6,4.9,1.6c0.7,0.1,1.4,0.1,2.1,0L80,400.3
	c50.3-13.2,103.4-10.4,152,8v28.1c-58.5-21-122-23.8-182.2-8L16,437.5V86.6c0-4.4-3.6-8-8-8s-8,3.6-8,8v361.3c0,2.5,1.2,4.8,3.1,6.3
	c2,1.5,4.5,2.1,7,1.4L54,443.9c60.2-15.9,123.9-12.1,181.8,11l1.1,0.4c1.9,0.8,4,0.8,5.9,0l1.1-0.4c57.9-23.1,121.8-27,182.1-11
	l43.9,12c0.7,0.1,1.4,0.1,2.1,0c4.4,0,8-3.6,8-8V86.6C480,82.2,476.4,78.6,472,78.6z"/>
<path class="st0" d="M202.2,223.9c-38-10.9-78.3-10.9-116.3,0c-4.4,1.2-7,5.7-5.8,10.2s5.7,7,10.2,5.8c35.2-10.1,72.5-10.1,107.7,0
	c0.7,0.1,1.4,0.1,2.2,0c4.4,0.6,8.5-2.5,9.1-6.9C209.7,228.6,206.6,224.5,202.2,223.9z"/>
<path class="st0" d="M202.2,263.9c-38-10.9-78.3-10.9-116.3,0c-4.4,1.2-7,5.7-5.8,10.2s5.7,7,10.2,5.8c35.2-10.1,72.5-10.1,107.7,0
	c0.7,0.1,1.4,0.1,2.2,0c4.4,0.6,8.5-2.5,9.1-6.9C209.7,268.6,206.6,264.5,202.2,263.9z"/>
<path class="st0" d="M202.2,303.9c-38-10.9-78.3-10.9-116.3,0c-4.4,1.2-7,5.7-5.8,10.2s5.7,7,10.2,5.8c35.2-10.1,72.5-10.1,107.7,0
	c0.7,0.1,1.4,0.1,2.2,0c4.4,0.6,8.5-2.5,9.1-6.9C209.7,308.6,206.6,304.5,202.2,303.9z"/>
<path class="st0" d="M272,103.9h1.9l32-8c4.4-1.1,7.1-5.5,6.1-9.9c-1.1-4.4-5.5-7.1-9.9-6.1l-32,8c-4.4,0.5-7.6,4.5-7,9
	C263.6,101.3,267.6,104.4,272,103.9z"/>
<path class="st0" d="M264,129.8c1.1,4.3,5.4,6.9,9.7,5.8l32-8c4.4-1,7.1-5.3,6.1-9.7c-1-4.4-5.3-7.1-9.7-6.1l-32,8
	c-2.2,0.5-4,1.8-5.2,3.6C263.8,125.4,263.4,127.7,264,129.8z"/>
<path class="st0" d="M264,169.8c1.1,4.3,5.4,6.9,9.7,5.8l32-8c4.4-1,7.1-5.3,6.1-9.7c-1-4.4-5.3-7.1-9.7-6.1l-32,8
	c-2.2,0.5-4,1.8-5.2,3.6C263.8,165.4,263.4,167.7,264,169.8z"/>
<path class="st0" d="M272,210.1c1.2,4.2,5.6,6.7,9.8,5.5c35.2-10.1,72.5-10.1,107.7,0c0.8,0.3,1.6,0.4,2.5,0.3
	c4.4,0.6,8.5-2.5,9.1-6.9c0.6-4.4-2.5-8.5-6.9-9.1c-38-10.9-78.3-10.9-116.3,0c-2.2,0.5-4,1.9-5.1,3.8
	C271.6,205.7,271.3,208,272,210.1z"/>
<path class="st0" d="M392,255.9c4.4,0.6,8.5-2.5,9.1-6.9c0.6-4.4-2.5-8.5-6.9-9.1c-38-10.9-78.3-10.9-116.3,0
	c-4.4,1.2-7,5.7-5.8,10.2s5.7,7,10.2,5.8c35.2-10.1,72.5-10.1,107.7,0C390.6,256,391.3,256,392,255.9z"/>
</svg>
