<?xml version="1.0" encoding="utf-8"?>
<!-- Generator: Adobe Illustrator 25.1.0, SVG Export Plug-In . SVG Version: 6.00 Build 0)  -->
<svg version="1.1" id="Capa_1" xmlns="http://www.w3.org/2000/svg" xmlns:xlink="http://www.w3.org/1999/xlink" x="0px" y="0px"
	 viewBox="0 0 512 512" style="enable-background:new 0 0 512 512;" xml:space="preserve">
<style type="text/css">
	.st0{fill:#5D8026;}
</style>
<g id="Outline">
	<path class="st0" d="M391.7,161.8L364.4,98V62.4c0-5.2-4.2-9.4-9.4-9.4H167.4c-5.2,0-9.4,4.2-9.4,9.4V98l-27.4,63.9
		c-0.5,1.2-0.8,2.4-0.8,3.7v300.1c0,5.2,4.2,9.4,9.4,9.4h243.8c5.2,0,9.4-4.2,9.4-9.4V165.5C392.5,164.3,392.3,163,391.7,161.8z
		 M173.6,109.3h167.2l-20.1,46.9H153.5L173.6,109.3z M355,123.7l13.9,32.5h-27.8L355,123.7z M176.8,71.8h168.8v18.8H176.8V71.8z
		 M148.7,174.9h168.8v281.3H148.7V174.9z M373.8,456.2h-37.5V174.9h37.5V456.2z"/>
	<path class="st0" d="M195.6,371.8h18.8v18.8h-18.8V371.8z"/>
	<path class="st0" d="M233.1,371.8h56.3v18.8h-56.3V371.8z"/>
	<path class="st0" d="M176.8,409.4h112.5v18.8H176.8V409.4z"/>
</g>
</svg>
