<?xml version="1.0" encoding="utf-8"?>
<!-- Generator: Adobe Illustrator 25.1.0, SVG Export Plug-In . SVG Version: 6.00 Build 0)  -->
<svg version="1.1" id="Capa_1" xmlns="http://www.w3.org/2000/svg" xmlns:xlink="http://www.w3.org/1999/xlink" x="0px" y="0px"
	 viewBox="0 0 512 512" style="enable-background:new 0 0 512 512;" xml:space="preserve">
<style type="text/css">
	.st0{fill:#5D8026;}
</style>
<path class="st0" d="M312,149.1l-18.8-0.8c7.5-7.9,12.4-18.3,13.4-29.8h28c12.1,0,22-9.9,22-22V85.4c0-12.1-9.9-22-22-22h-35.2
	c-10.6-22.9-31.6-40.2-57.6-45.3c-4.1-0.8-8,1.9-8.8,5.9c-0.8,4.1,1.9,8,5.9,8.8c30.6,6,52.9,33,52.9,64.2v17.3
	c0,16.4-11.5,30-26.6,33.5c-7.2,1.7-13,0.6-52.3,0.9c-20.9,0-39.7,9.7-52,24.8c0-17.3,0-61.8,0-76.4c0-31.3,22.2-58.3,52.9-64.2
	c4.1-0.8,6.7-4.7,5.9-8.8c-0.8-4.1-4.7-6.7-8.8-5.9c-37.7,7.3-65,40.5-65,79v56.6C105.6,158.5,0,174.6,0,215.1v139.7
	c0,4.1,3.4,7.5,7.5,7.5s7.5-3.4,7.5-7.5V239.7C52.9,268,150.8,278.3,198.1,281c4.7,1.1,9.6,1.6,14.7,1.6c24.3,0,221.4,3.9,284.2-43
	v195.6c0,0.1-1.1,9.4-42.3,19.8c-0.2,0-0.3,0.1-0.5,0.2c-97.8,32.2-298.5,32.2-396.3,0c-0.2-0.1-0.3-0.1-0.5-0.2
	C16.2,444.7,15,435.3,15,435.2v-52.4c0-4.1-3.4-7.5-7.5-7.5S0,378.7,0,382.8v52.4c0,14.2,17,25.1,53.4,34.3
	c101,33.2,304.1,33.2,405.2,0c36.4-9.2,53.4-20.1,53.4-34.3V215.1C512,166.6,360.4,151.1,312,149.1z M306.7,78.4h27.8
	c3.9,0,7,3.1,7,7v11.1c0,3.9-3.1,7-7,7h-27.8V78.4z M82,250.3c-49.5-12-67-26.4-67-35.2c0-12.5,35-34.8,130.8-46.3v46.9
	c0,18.8,7.8,35.7,20.2,47.9C134.9,260.6,106.4,256.2,82,250.3z M430,250.3c-68.4,16.5-158.7,19.8-229.7,15.9
	c-22.6-5.6-39.5-26.1-39.5-50.4c0-28.7,23.3-52,52-52c47.3,0,45,0,46.2,0c13.2-0.4-2.5-1.5,24.4-0.8c3.2,0.3,95.9,1.3,163.9,21.7
	c36.6,11,49.7,22.9,49.7,30.5C497,223.9,479.4,238.3,430,250.3z"/>
</svg>
