<?xml version="1.0" encoding="utf-8"?>
<!-- Generator: Adobe Illustrator 25.1.0, SVG Export Plug-In . SVG Version: 6.00 Build 0)  -->
<svg version="1.1" id="Capa_1" xmlns="http://www.w3.org/2000/svg" xmlns:xlink="http://www.w3.org/1999/xlink" x="0px" y="0px"
	 viewBox="0 0 511 512" style="enable-background:new 0 0 511 512;" xml:space="preserve">
<style type="text/css">
	.st0{fill:#5D8026;}
</style>
<path class="st0" d="M421.9,319.5c4.1,0,7.5-3.4,7.5-7.5V200.8c0-16.9-7.5-32.7-20.6-43.4l-52.2-42.6c-4.7-3.9-7.9-9.1-9.3-14.9
	c0,0,0-0.1,0-0.1c-0.4-2-0.7-4-0.7-6c0,0,0,0,0,0v-12h17.3c13,0,23.5-10.6,23.5-23.5V22.5c0-13-10.6-23.5-23.5-23.5h-90
	c-4.1,0-7.5,3.4-7.5,7.5c0,4.1,3.4,7.5,7.5,7.5h90c4.7,0,8.5,3.8,8.5,8.5v35.6c0,4.7-3.8,8.5-8.5,8.5c-5.6,0-158.7,0-215,0
	c-4.7,0-8.5-3.8-8.5-8.5V22.5c0-4.7,3.8-8.5,8.5-8.5h90c4.1,0,7.5-3.4,7.5-7.5c0-4.1-3.4-7.5-7.5-7.5h-90c-13,0-23.5,10.6-23.5,23.5
	v35.6c0,13,10.6,23.5,23.5,23.5h17.3v12c0,0,0,0,0,0c0,2-0.2,4-0.7,6c0,0,0,0.1,0,0.1c-1.3,5.8-4.6,11.1-9.3,14.9l-52.2,42.6
	C91,168,83.5,183.9,83.5,200.8v261.3c0,27,21.9,48.9,48.9,48.9h248.1c27,0,48.9-21.9,48.9-48.9V347c0-4.1-3.4-7.5-7.5-7.5
	c-4.1,0-7.5,3.4-7.5,7.5v115.1c0,18.7-15.2,33.9-33.9,33.9H132.4c-18.7,0-33.9-15.2-33.9-33.9V200.8c0-12.4,5.5-24,15.1-31.8
	l52.2-42.6c5.7-4.7,10-10.7,12.6-17.4h156.1c2.6,6.7,6.9,12.7,12.6,17.4l52.2,42.6c9.6,7.8,15.1,19.4,15.1,31.8V312
	C414.4,316.1,417.7,319.5,421.9,319.5z M181.2,93.9c0-0.1,0-0.1,0-0.2v-12h150.4v12c0,0.1,0,0.1,0,0.2H181.2z"/>
</svg>
