<?xml version="1.0" encoding="utf-8"?>
<!-- Generator: Adobe Illustrator 25.1.0, SVG Export Plug-In . SVG Version: 6.00 Build 0)  -->
<svg version="1.1" id="Capa_1" xmlns="http://www.w3.org/2000/svg" xmlns:xlink="http://www.w3.org/1999/xlink" x="0px" y="0px"
	 viewBox="0 0 512 512" style="enable-background:new 0 0 512 512;" xml:space="preserve">
<style type="text/css">
	.st0{fill:#5D8026;}
</style>
<g>
	<g>
		<path class="st0" d="M106,229c-5.5,0-10,4.5-10,10s4.5,10,10,10s10-4.5,10-10S111.5,229,106,229z"/>
	</g>
</g>
<g>
	<g>
		<path class="st0" d="M106,269c-5.5,0-10,4.5-10,10v140c0,5.5,4.5,10,10,10s10-4.5,10-10V279C116,273.5,111.5,269,106,269z"/>
	</g>
</g>
<g>
	<g>
		<path class="st0" d="M296,453.7v-35.3c0,0,0,0,0,0V239.6c0,0,0,0,0,0v-35.3c4.2-1.5,8-3.9,11.2-7.1c5.7-5.7,8.8-13.2,8.8-21.2
			c0-13.2-8.5-24.4-20.4-28.4c-3.6-39.2-32.4-73.1-69.6-82.2V10c0-5.5-4.5-10-10-10h-40c-27.6,0-50,22.4-50,50v15.4
			c-16.4,4-31.7,12.9-43.8,25.6c-14.7,15.4-23.8,35.7-25.8,56.5c-4.3,1.5-8.3,3.9-11.6,7.2C39.1,160.5,36,168,36,176
			c0,13,8.4,24.2,20,28.3v249.4c-4.2,1.5-8,3.9-11.2,7.1C39.1,466.5,36,474,36,482c0,16.5,13.5,30,30,30h220c8,0,15.5-3.1,21.2-8.8
			c5.7-5.7,8.8-13.2,8.8-21.2C316,469,307.6,457.9,296,453.7z M146,50c0-16.5,13.5-30,30-30h30v43h-60V50z M96.7,104.8
			c11.1-11.7,25.5-19.2,40.7-21.2c2.9-0.4,5.8-0.6,8.7-0.6h60c2.9,0,5.8,0.2,8.7,0.6c31.2,4.2,56.2,30.7,60.6,62.4H76.7
			C78.9,130.8,85.9,116.2,96.7,104.8z M58.9,168.9c1.9-1.9,4.4-2.9,7.1-2.9h220c5.5,0,10,4.5,10,10c0,2.7-1,5.2-2.9,7.1
			c-1.9,1.9-4.4,2.9-7.1,2.9H66c-5.5,0-10-4.5-10-10C56,173.3,57,170.8,58.9,168.9z M176,329c0,55.1,44.9,100,100,100v23H76V206h200
			v23C220.9,229,176,273.9,176,329z M276,249v160c-44.1,0-80-35.9-80-80S231.9,249,276,249z M293.1,489.1c-1.9,1.9-4.4,2.9-7.1,2.9
			H66c-5.5,0-10-4.5-10-10c0-2.7,1-5.2,2.9-7.1c1.9-1.9,4.4-2.9,7.1-2.9h220c5.5,0,10,4.5,10,10C296,484.7,295,487.2,293.1,489.1z"
			/>
	</g>
</g>
<g>
	<g>
		<path class="st0" d="M467.2,80.1l-160-20c-5.5-0.7-10.5,3.2-11.2,8.7c-0.7,5.5,3.2,10.5,8.7,11.2l160,20c0.4,0.1,0.8,0.1,1.3,0.1
			c5,0,9.3-3.7,9.9-8.8C476.6,85.8,472.7,80.8,467.2,80.1z"/>
	</g>
</g>
<g>
	<g>
		<path class="st0" d="M475.9,8.8c-0.7-5.5-5.7-9.4-11.2-8.7l-160,20c-5.5,0.7-9.4,5.7-8.7,11.2c0.6,5.1,4.9,8.8,9.9,8.8
			c0.4,0,0.8,0,1.3-0.1l160-20C472.7,19.2,476.6,14.2,475.9,8.8z"/>
	</g>
</g>
</svg>
