<?xml version="1.0" encoding="utf-8"?>
<!-- Generator: Adobe Illustrator 25.1.0, SVG Export Plug-In . SVG Version: 6.00 Build 0)  -->
<svg version="1.1" id="Capa_1" xmlns="http://www.w3.org/2000/svg" xmlns:xlink="http://www.w3.org/1999/xlink" x="0px" y="0px"
	 viewBox="0 0 512 512" style="enable-background:new 0 0 512 512;" xml:space="preserve">
<style type="text/css">
	.st0{fill:#5D8026;}
</style>
<g>
	<g>
		<path class="st0" d="M135.1,332.4c-1.9-1.9-4.4-2.9-7.1-2.9s-5.2,1.1-7.1,2.9s-2.9,4.4-2.9,7.1s1.1,5.2,2.9,7.1
			c1.9,1.9,4.4,2.9,7.1,2.9c2.6,0,5.2-1.1,7.1-2.9c1.9-1.9,2.9-4.4,2.9-7.1S136.9,334.3,135.1,332.4z"/>
	</g>
</g>
<g>
	<g>
		<path class="st0" d="M393,109.7l-17.2-36.3c3.9-1.4,6.6-5.1,6.6-9.4c0-5.5-4.5-10-10-10h-76.4l4.4-26.1c1.2-6.9-0.8-14-5.3-19.4
			C290.7,3.1,284,0,277,0h-42c-7,0-13.7,3.1-18.2,8.5c-4.5,5.4-6.5,12.5-5.3,19.4l4.4,26.1h-76.4c-5.5,0-10,4.5-10,10
			c0,4.3,2.8,8,6.6,9.4L119,109.7c-0.6,1.3-1,2.8-1,4.3v181.5c0,5.5,4.5,10,10,10s10-4.5,10-10V124h167.7c5.5,0,10-4.5,10-10
			s-4.5-10-10-10H143.8L158,74H354l20,42.2V442H138v-64c0-5.5-4.5-10-10-10s-10,4.5-10,10v74c0,1.5,0.3,2.9,1,4.3l17.5,37.1
			c-3,1.7-5,5-5,8.6c0,5.5,4.5,10,10,10h10.1h208.7h10.1c5.5,0,10-4.5,10-10c0-3.7-2-6.9-5-8.6l17.5-37.1c0.6-1.3,1-2.8,1-4.3V114
			C394,112.5,393.7,111.1,393,109.7z M280.8,24.5l-5,29.5h-39.7l-5-29.5c-0.3-1.5,0.4-2.6,0.9-3.2s1.4-1.4,3-1.4h42
			c1.6,0,2.5,0.9,3,1.4C280.4,21.9,281.1,23,280.8,24.5z M354,492H158l-14.2-30h224.4L354,492z"/>
	</g>
</g>
<g>
	<g>
		<path class="st0" d="M352.7,106.9c-1.9-1.9-4.4-2.9-7.1-2.9c-2.6,0-5.2,1.1-7.1,2.9c-1.9,1.9-2.9,4.4-2.9,7.1s1.1,5.2,2.9,7.1
			c1.9,1.9,4.4,2.9,7.1,2.9c2.6,0,5.2-1.1,7.1-2.9c1.9-1.9,2.9-4.4,2.9-7.1S354.6,108.8,352.7,106.9z"/>
	</g>
</g>
<g>
	<g>
		<path class="st0" d="M258.7,27h-5.3c-5.5,0-10,4.5-10,10s4.5,10,10,10h5.3c5.5,0,10-4.5,10-10S264.2,27,258.7,27z"/>
	</g>
</g>
<g>
	<g>
		<path class="st0" d="M256,199c-46.3,0-84,37.7-84,84c0,46.3,37.7,84,84,84s84-37.7,84-84C340,236.7,302.3,199,256,199z M256,347
			c-35.3,0-64-28.7-64-64s28.7-64,64-64s64,28.7,64,64S291.3,347,256,347z"/>
	</g>
</g>
</svg>
